{"title":"Shrek.Forever.After.2010.CAM.XviD-LU","uid":5581303,"size":733392195,"categoryP":"video","categoryS":"movies","magnet":"?xt=urn:btih:78c9fd2faec5574f2c1d1e3620bae6a65c8fed0e&amp;dn=Shrek.Forever.After.2010.CAM.XviD-LU&amp;tr=udp%3A%2F%2Ftracker.openbittorrent.com%3A80&amp;tr=udp%3A%2F%2Fopen.demonii.com%3A1337&amp;tr=udp%3A%2F%2Ftracker.coppersurfer.tk%3A6969&amp;tr=udp%3A%2F%2Fexodus.desync.com%3A6969","seeders":1,"leechers":1,"uploader":"TvTeam","files":4,"time":1274550058,"description":". \n \n &lt;a href=&quot;\nhttp://www.torrentday.com&quot; rel=&quot;nofollow&quot; target=&quot;_NEW&quot;&gt;\nhttp://www.torrentday.com&lt;/a&gt; :  Your Key To The Scene.\n\n\nNow TvTeam with [No-RAR] Releases.\n\n\n\n(((((((((((((= Enjoy No RAR releases =))))))))))))))))))))\n\n\n\n...................................NFO:....................................\n\n.General\nComplete name                    : Shrek Forever After.2010.CAM.LU.avi\nFormat                           : AVI\nFormat/Info                      : Audio Video Interleave\nFile size                        : 699 MiB\nDuration                         : 1h 20mn\nOverall bit rate                 : 1 214 Kbps\nMovie name                       : Shrek Forever After (2010)\nDirector                         : ELEKTRI4KA\nWriting application              : VirtualDubMod 1.5.10.2 (build 2540/release)\nWriting library                  : VirtualDub build 32706/release\n\nVideo\nID                               : 0\nFormat                           : MPEG-4 Visual\nFormat profile                   : Advanced Simple@L5\nFormat settings, BVOP            : Yes\nFormat settings, QPel            : No\nFormat settings, GMC             : No warppoints\nFormat settings, Matrix          : Default (H.263)\nCodec ID                         : XVID\nCodec ID/Hint                    : XviD\nDuration                         : 1h 20mn\nBit rate                         : 1 076 Kbps\nWidth                            : 720 pixels\nHeight                           : 304 pixels\nDisplay aspect ratio             : 2.35:1\nFrame rate                       : 25.000 fps\nOriginal frame rate              : 25.000 fps\nResolution                       : 8 bits\nColorimetry                      : 4:2:0\nScan type                        : Progressive\nBits/(Pixel*Frame)               : 0.196\nStream size                      : 620 MiB (89%)\nWriting library                  : XviD 1.2.1 (UTC 2008-12-04)\n\nAudio\nID                               : 1\nFormat                           : MPEG Audio\nFormat version                   : Version 1\nFormat profile                   : Layer 3\nMode                             : Joint stereo\nFormat_Settings_ModeExtension    : MS Stereo\nCodec ID                         : 55\nCodec ID/Hint                    : MP3\nDuration                         : 1h 20mn\nBit rate mode                    : Constant\nBit rate                         : 128 Kbps\nChannel(s)                       : 2 channels\nSampling rate                    : 48.0 KHz\nStream size                      : 73.7 MiB (11%)\nAlignment                        : Split accross interleaves\nInterleave, duration             : 40 ms (1.00 video frame)\nInterleave, preload duration     : 500 ms\n\nNotes\n\nDidint do anything with vid not too bad could maybe clean up, but\nnot bad for first one.\n\nAudio just added audio too it english, did my best really wasnt\nworking with me but seems to be close enough in sync,also there\nis gonna be about 60 seconds of original audio sence for some reason\nit dropped audio whene i got it,If you wanna bitch then dont get.\nI try my best.\n\nEnjoy","torrent":{"xt":"urn:btih:78c9fd2faec5574f2c1d1e3620bae6a65c8fed0e","amp;dn":"Shrek.Forever.After.2010.CAM.XviD-LU","amp;tr":["udp%3A%2F%2Ftracker.openbittorrent.com%3A80","udp%3A%2F%2Fopen.demonii.com%3A1337","udp%3A%2F%2Ftracker.coppersurfer.tk%3A6969","udp%3A%2F%2Fexodus.desync.com%3A6969"],"infoHash":"78c9fd2faec5574f2c1d1e3620bae6a65c8fed0e","infoHashBuffer":{"type":"Buffer","data":[120,201,253,47,174,197,87,79,44,29,30,54,32,186,230,166,92,143,237,14]},"announce":[],"urlList":[]}}